<svg width="23" height="22" viewBox="0 0 23 22" fill="none" xmlns="http://www.w3.org/2000/svg">
<path d="M10.507 20.5H9.105C5.52 20.5 3.728 20.5 2.614 19.365C1.5 18.23 1.5 16.403 1.5 12.75C1.5 9.097 1.5 7.27 2.614 6.135C3.728 5 5.52 5 9.105 5H12.908C16.493 5 18.286 5 19.4 6.135C20.257 7.008 20.454 8.291 20.5 10.5V12" stroke="#002B6B" stroke-width="1.5" stroke-linecap="round" stroke-linejoin="round"/>
<path d="M18.5 17.5H15.5M15.5 20.5C14.7044 20.5 13.9413 20.1839 13.3787 19.6213C12.8161 19.0587 12.5 18.2956 12.5 17.5C12.5 16.7044 12.8161 15.9413 13.3787 15.3787C13.9413 14.8161 14.7044 14.5 15.5 14.5M18.5 20.5C19.2956 20.5 20.0587 20.1839 20.6213 19.6213C21.1839 19.0587 21.5 18.2956 21.5 17.5C21.5 16.7044 21.1839 15.9413 20.6213 15.3787C20.0587 14.8161 19.2956 14.5 18.5 14.5M15.5 5L15.4 4.69C14.905 3.15 14.658 2.38 14.069 1.94C13.479 1.5 12.697 1.5 11.131 1.5H10.868C9.303 1.5 8.52 1.5 7.931 1.94C7.341 2.38 7.094 3.15 6.599 4.69L6.5 5" stroke="#002B6B" stroke-width="1.5" stroke-linecap="round" stroke-linejoin="round"/>
</svg>
